<svg id="Capa_1" enable-background="new 0 0 512 512" height="512" viewBox="0 0 512 512" width="512" xmlns="http://www.w3.org/2000/svg"><path d="m444.5 349.5c4.143 0 7.5-3.358 7.5-7.5v-262c0-4.142-3.357-7.5-7.5-7.5h-377c-4.142 0-7.5 3.358-7.5 7.5v262c0 4.142 3.358 7.5 7.5 7.5zm-369.5-262h362v247h-362z"/><path d="m511.208 428.646-21.708-43.417c-3.923-7.846-10.283-13.856-17.911-17.339 6.442-6.736 10.411-15.855 10.411-25.89v-262c0-20.678-16.822-37.5-37.5-37.5h-377c-20.678 0-37.5 16.822-37.5 37.5v116c0 4.142 3.358 7.5 7.5 7.5s7.5-3.358 7.5-7.5v-116c0-12.407 10.093-22.5 22.5-22.5h377c12.406 0 22.5 10.093 22.5 22.5v262c0 12.407-10.094 22.5-22.5 22.5h-377c-12.407 0-22.5-10.093-22.5-22.5v-116c0-4.142-3.358-7.5-7.5-7.5s-7.5 3.358-7.5 7.5v116c0 10.035 3.969 19.154 10.411 25.891-7.628 3.483-13.988 9.493-17.912 17.339l-21.707 43.416c-.521 1.042-.792 2.189-.792 3.354 0 20.678 16.822 37.5 37.5 37.5h437c20.678 0 37.5-16.822 37.5-37.5 0-1.165-.271-2.312-.792-3.354zm-475.292-36.708c3.836-7.672 11.548-12.438 20.125-12.438h399.918c8.577 0 16.289 4.766 20.125 12.438l16.281 32.563h-472.73zm280.084 47.562v15h-120v-15zm-299.698 0h164.698v15h-143.5c-9.776 0-18.101-6.273-21.198-15zm458.198 15h-143.5v-15h164.698c-3.097 8.727-11.422 15-21.198 15z"/></svg>