<?xml version="1.0" encoding="UTF-8" standalone="no"?>
<!-- Created with Inkscape (http://www.inkscape.org/) -->

<svg
   xmlns:dc="http://purl.org/dc/elements/1.1/"
   xmlns:cc="http://creativecommons.org/ns#"
   xmlns:rdf="http://www.w3.org/1999/02/22-rdf-syntax-ns#"
   xmlns:svg="http://www.w3.org/2000/svg"
   xmlns="http://www.w3.org/2000/svg"
   xmlns:sodipodi="http://sodipodi.sourceforge.net/DTD/sodipodi-0.dtd"
   xmlns:inkscape="http://www.inkscape.org/namespaces/inkscape"
   version="1.1"
   id="svg2"
   width="512"
   height="512"
   viewBox="0 0 512 511.99999"
   sodipodi:docname="logo2.svg.2020_02_07_20_45_24.0.svg"
   inkscape:version="0.92.4 5da689c313, 2019-01-14"
   inkscape:export-filename="/home/yeison/Development/gcpds/openbci-assets/python-openbci/logo.png"
   inkscape:export-xdpi="96"
   inkscape:export-ydpi="96">
  <metadata
     id="metadata8">
    <rdf:RDF>
      <cc:Work
         rdf:about="">
        <dc:format>image/svg+xml</dc:format>
        <dc:type
           rdf:resource="http://purl.org/dc/dcmitype/StillImage" />
        <dc:title></dc:title>
      </cc:Work>
    </rdf:RDF>
  </metadata>
  <defs
     id="defs6" />
  <sodipodi:namedview
     pagecolor="#ffffff"
     bordercolor="#666666"
     borderopacity="1"
     objecttolerance="10"
     gridtolerance="10"
     guidetolerance="10"
     inkscape:pageopacity="0"
     inkscape:pageshadow="2"
     inkscape:window-width="1920"
     inkscape:window-height="1004"
     id="namedview4"
     showgrid="false"
     inkscape:zoom="0.70588231"
     inkscape:cx="140.58608"
     inkscape:cy="266.14397"
     inkscape:window-x="0"
     inkscape:window-y="0"
     inkscape:window-maximized="1"
     inkscape:current-layer="svg2"
     showguides="true"
     inkscape:guide-bbox="true"
     inkscape:snap-bbox="true"
     inkscape:bbox-paths="false"
     inkscape:bbox-nodes="false"
     inkscape:snap-bbox-midpoints="true"
     inkscape:snap-bbox-edge-midpoints="false"
     inkscape:object-paths="true"
     inkscape:snap-intersection-paths="true"
     inkscape:snap-smooth-nodes="true"
     inkscape:snap-midpoints="true"
     fit-margin-top="0"
     fit-margin-left="0"
     fit-margin-right="0"
     fit-margin-bottom="0" />
  <g
     id="g839"
     transform="rotate(180,-695.26575,739.70915)" />
  <rect
     style="opacity:1;fill:#ececec;fill-opacity:1;stroke:#000000;stroke-width:1;stroke-linecap:square;stroke-linejoin:miter;stroke-miterlimit:4;stroke-dasharray:none;stroke-dashoffset:0;stroke-opacity:1;paint-order:fill markers stroke"
     id="rect867"
     width="0"
     height="0"
     x="0"
     y="436.36536" />
  <g
     inkscape:transform-center-y="-1.4740477"
     inkscape:transform-center-x="-1.4740494"
     transform="rotate(-45,539.61454,315.7792)"
     id="g953">
    <g
       transform="translate(10.425656,5.0613774)"
       id="g951" />
  </g>
  <path
     id="path969"
     style="fill:#00acc1;fill-opacity:1;stroke-width:1.08251512"
     d="m 197.91339,284.52272 c -1.62812,1.62814 -2.53746,3.82781 -2.53746,6.12278 v 17.32036 h 17.32038 v -13.73333 l 6.12277,-6.12271 -12.24553,-12.24725 z m 0,0 m 14.78292,-49.42367 -14.78292,14.78292 12.24553,12.24726 17.3204,-17.32037 c 1.62812,-1.62814 2.53739,-3.82782 2.53739,-6.12277 V 212.7055 h -17.3204 z m 0,0 m 92.72475,40.76352 -12.24554,12.24725 6.12277,6.12271 v 13.73333 h 17.32038 V 290.6455 c 0,-2.29497 -0.91801,-4.49812 -2.53746,-6.12278 z m 0,0 m -3.58538,-13.73334 12.24553,-12.24726 -14.78292,-14.78292 V 212.7055 H 281.9779 v 25.98059 c 0,2.29495 0.91794,4.49811 2.5374,6.12277 z m 0,0 m 5.67766,109.19461 7.15501,-21.46861 30.03185,-7.51008 c 3.85723,-0.96994 6.55919,-4.42712 6.55919,-8.39869 v -13.73334 l 23.44315,-23.44486 c 1.62813,-1.62814 2.53573,-3.82609 2.53573,-6.12276 v -43.29919 c -0.003,-1.71477 -0.5194,-3.38442 -1.4549,-4.80818 l -15.86549,-23.76877 v -32.04445 c 0,-2.29668 -0.91802,-4.49982 -2.53748,-6.12277 l -17.32032,-17.32037 c -1.62813,-1.62808 -3.8278,-2.53739 -6.12276,-2.53739 h -19.74007 l -6.68566,-20.05702 c -1.17777,-3.53856 -4.48595,-5.92339 -8.21505,-5.92339 h -25.98055 c -2.29671,0 -4.49989,0.91278 -6.12277,2.53721 l -11.19763,11.19766 -11.19763,-11.19766 c -1.62812,-1.6246 -3.82605,-2.53721 -6.12276,-2.53721 h -25.98056 c -3.7291,0 -7.04078,2.38483 -8.22031,5.92339 l -6.68565,20.05702 h -19.73483 c -2.29496,0 -4.49813,0.91798 -6.12276,2.53739 l -17.3204,17.32037 c -1.62812,1.62814 -2.53571,3.82609 -2.53571,6.12277 v 32.04445 l -15.86718,23.793 c -0.93529,1.42028 -1.43764,3.08304 -1.45489,4.78395 v 43.29919 c 0,2.29667 0.91793,4.49982 2.53564,6.12276 l 23.44317,23.44486 v 13.73334 c 0,3.97157 2.70369,7.43395 6.55575,8.39869 l 30.03528,7.51008 7.1499,21.46861 c 1.17779,3.53857 4.49115,5.92357 8.22024,5.92357 h 25.98056 c 2.29671,0 4.49981,-0.91797 6.12276,-2.53738 l 11.19763,-11.19767 11.19763,11.19767 c 1.62813,1.62807 3.82606,2.53738 6.12277,2.53738 h 25.98056 c 3.72909,0 7.04077,-2.385 8.21504,-5.92357 z m -72.42177,-11.3968 h -16.15295 l -4.99524,-14.98213 13.53594,-13.53591 c 1.62812,-1.62807 2.53739,-3.82602 2.53739,-6.12271 v -8.66021 h -17.3204 v 5.07489 l -11.31884,11.31884 -23.32188,-5.83866 v -45.19582 h -17.32038 v 13.73505 l -8.65849,-8.66021 V 249.9426 l 9.99908,-15.00814 7.31957,7.31095 v 5.1009 h 17.3204 v -8.66022 c 0,-2.29668 -0.91794,-4.49982 -2.53573,-6.12448 l -14.78467,-14.783 v -27.46837 l 12.24728,-12.24549 h 18.80821 l 12.24545,12.24549 v 5.07489 h 17.3204 v -8.66022 c 0,-2.29668 -0.91793,-4.49982 -2.53739,-6.12277 l -13.53594,-13.53585 4.99524,-14.98213 h 16.15295 l 12.24553,12.24549 v 183.35191 z m 41.81146,0 -12.24553,-12.24548 V 164.32965 l 12.24553,-12.24549 h 16.14953 l 4.99866,14.98213 -13.53592,13.53585 c -1.62805,1.62814 -2.5374,3.82609 -2.5374,6.12277 v 8.66022 h 17.32039 v -5.07489 l 12.24544,-12.24549 h 18.80822 l 12.24728,12.24549 v 27.46837 l -14.78293,14.783 c -1.62812,1.62814 -2.53746,3.8278 -2.53746,6.12448 v 8.66022 h 17.32039 v -5.07489 l 7.31438,-7.31095 10.00601,14.98213 v 37.09162 l -8.66023,8.66021 v -13.7091 h -17.3204 v 45.19582 l -23.32537,5.83866 -11.31533,-11.31884 v -5.07489 H 281.9779 v 8.66021 c 0,2.29669 0.91794,4.49983 2.5374,6.12271 l 13.53592,13.53591 -4.99866,14.98213 z m 0,0 m 30.61031,11.3968 7.15501,-21.46861 30.03185,-7.51008 c 3.85723,-0.96994 6.55919,-4.42712 6.55919,-8.39869 v -13.73334 l 23.44315,-23.44486 c 1.62813,-1.62814 2.53573,-3.82609 2.53573,-6.12276 v -43.29919 c -0.003,-1.71477 -0.5194,-3.38442 -1.4549,-4.80818 l -15.86549,-23.76877 v -32.04445 c 0,-2.29668 -0.91802,-4.49982 -2.53748,-6.12277 l -17.32032,-17.32037 c -1.62813,-1.62808 -3.8278,-2.53739 -6.12276,-2.53739 h -19.74007 l -6.68566,-20.05702 c -1.17777,-3.53856 -4.48595,-5.92339 -8.21505,-5.92339 h -25.98055 c -2.29671,0 -4.49989,0.91278 -6.12277,2.53721 l -11.19763,11.19766 -11.19763,-11.19766 c -1.62812,-1.6246 -3.82605,-2.53721 -6.12276,-2.53721 h -25.98056 c -3.7291,0 -7.04078,2.38483 -8.22031,5.92339 l -6.68565,20.05702 h -19.73483 c -2.29496,0 -4.49813,0.91798 -6.12276,2.53739 l -17.3204,17.32037 c -1.62812,1.62814 -2.53571,3.82609 -2.53571,6.12277 v 32.04445 l -15.86718,23.793 c -0.93529,1.42028 -1.43764,3.08304 -1.45489,4.78395 v 43.29919 c 0,2.29667 0.91793,4.49982 2.53564,6.12276 l 23.44317,23.44486 v 13.73334 c 0,3.97157 2.70369,7.43395 6.55575,8.39869 l 30.03528,7.51008 7.1499,21.46861 c 1.17779,3.53857 4.49115,5.92357 8.22024,5.92357 h 25.98056 c 2.29671,0 4.49981,-0.91797 6.12276,-2.53738 l 11.19763,-11.19767 11.19763,11.19767 c 1.62813,1.62807 3.82606,2.53738 6.12277,2.53738 h 25.98056 c 3.72909,0 7.04077,-2.385 8.21504,-5.92357 z m -72.42177,-11.3968 h -16.15295 l -4.99524,-14.98213 13.53594,-13.53591 c 1.62812,-1.62807 2.53739,-3.82602 2.53739,-6.12271 v -8.66021 h -17.3204 v 5.07489 l -11.31884,11.31884 -23.32188,-5.83866 v -45.19582 h -17.32038 v 13.73505 l -8.65849,-8.66021 V 249.9426 l 9.99908,-15.00814 7.31957,7.31095 v 5.1009 h 17.3204 v -8.66022 c 0,-2.29668 -0.91794,-4.49982 -2.53573,-6.12448 l -14.78467,-14.783 v -27.46837 l 12.24728,-12.24549 h 18.80821 l 12.24545,12.24549 v 5.07489 h 17.3204 v -8.66022 c 0,-2.29668 -0.91793,-4.49982 -2.53739,-6.12277 l -13.53594,-13.53585 4.99524,-14.98213 h 16.15295 l 12.24553,12.24549 v 183.35191 z m 41.81146,0 -12.24553,-12.24548 V 164.32965 l 12.24553,-12.24549 h 16.14953 l 4.99866,14.98213 -13.53592,13.53585 c -1.62805,1.62814 -2.5374,3.82609 -2.5374,6.12277 v 8.66022 h 17.32039 v -5.07489 l 12.24544,-12.24549 h 18.80822 l 12.24728,12.24549 v 27.46837 l -14.78293,14.783 c -1.62812,1.62814 -2.53746,3.8278 -2.53746,6.12448 v 8.66022 h 17.32039 v -5.07489 l 7.31438,-7.31095 10.00601,14.98213 v 37.09162 l -8.66023,8.66021 v -13.7091 h -17.3204 v 45.19582 l -23.32537,5.83866 -11.31533,-11.31884 v -5.07489 H 281.9779 v 8.66021 c 0,2.29669 0.91794,4.49983 2.5374,6.12271 l 13.53592,13.53591 -4.99866,14.98213 z m 0,0 M 146.34369,28.63221 c -6.29228,0.467036 -12.56263,2.330875 -18.3691,5.683214 -20.64512,11.919503 -27.75139,38.487713 -15.83192,59.132896 10.42961,18.06451 32.13471,25.75716 51.21691,19.41779 l 27.63818,47.86783 h 6.79966 l 4.80366,-14.51255 -24.25526,-42.01549 0.0366,-0.0353 c 15.03128,-13.356242 19.19141,-35.960374 8.76181,-54.024934 -7.44968,-12.903232 -20.62881,-20.523702 -34.50545,-21.515151 -2.08152,-0.149192 -4.19473,-0.155678 -6.2922,0 z m 212.9866,0 c -13.88152,0.986377 -27.05577,8.611919 -34.50544,21.515143 -10.42954,18.064505 -6.23568,40.702552 8.79551,54.058547 l -24.25532,42.01549 4.83752,14.51255 h 6.79958 l 27.63819,-47.83398 c 19.08226,6.33937 40.75357,-1.38701 51.18311,-19.45164 11.91947,-20.645116 4.81327,-47.213393 -15.83191,-59.132896 -7.74194,-4.469805 -16.33231,-6.275088 -24.66124,-5.683214 z M 151.48564,45.783461 c 8.29098,0.557844 16.12396,5.151073 20.66946,13.024108 7.27286,12.596822 3.05716,28.213648 -9.53972,35.486494 -12.59687,7.272787 -28.21368,3.09093 -35.48647,-9.505959 -7.27286,-12.59683 -3.09096,-28.213637 9.50591,-35.486483 4.72382,-2.727323 9.87627,-3.852868 14.85082,-3.51816 z m 208.99483,0 c 4.97455,-0.334354 10.12707,0.790837 14.85089,3.51816 12.59687,7.272846 16.8125,22.923503 9.53971,35.520333 -7.2728,12.596888 -22.92347,16.744896 -35.52034,9.472109 -12.59679,-7.27279 -16.8125,-22.889672 -9.53971,-35.486494 4.54549,-7.873035 12.37855,-12.466375 20.66945,-13.024108 z M 43.300951,212.69512 c -23.839012,0 -43.30095150000002,19.46202 -43.30095150000002,43.30096 0,23.839 19.46194250000002,43.30096 43.30095150000002,43.30096 20.859067,0 38.370319,-14.94539 42.421399,-34.64074 h 49.01803 V 247.33586 H 85.72235 v -0.0353 C 81.67127,227.60465 64.160018,212.69311 43.300951,212.69311 Z m 425.398089,0 c -20.85906,0 -38.37032,14.94538 -42.4214,34.64074 h -49.0519 v 17.32044 h 49.0519 v 0.0353 c 4.05108,19.69536 21.56234,34.6069 42.4214,34.6069 23.83902,0 43.30096,-19.46196 43.30096,-43.30096 0,-23.839 -19.46194,-43.30096 -43.30096,-43.30096 z M 43.300951,230.0155 c 14.54559,0 25.980553,11.43501 25.980553,25.98058 0,14.54564 -11.434963,25.98059 -25.980553,25.98059 -14.545594,0 -25.980631,-11.43495 -25.980631,-25.98059 0,-14.54557 11.435037,-25.98058 25.980631,-25.98058 z m 425.398089,0 c 14.54559,0 25.98063,11.43501 25.98063,25.98058 0,14.54564 -11.43504,25.98059 -25.98063,25.98059 -14.54559,0 -25.98063,-11.43495 -25.98055,-25.98059 0,-14.54557 11.43496,-25.98058 25.98055,-25.98058 z m -276.17892,118.63788 -29.16054,50.50651 c -19.09937,-6.38193 -40.77448,1.29715 -51.21691,19.38395 -11.91947,20.64517 -4.8132,47.24723 15.83192,59.16674 20.64519,11.9195 47.24727,4.77939 59.16674,-15.86578 10.42954,-18.06451 6.23568,-40.70248 -8.79551,-54.05854 l 24.25526,-42.01548 -5.27724,-15.89958 z m 126.95975,0 -4.80373,1.21782 -5.3111,15.89958 24.25532,42.01542 c -15.0596,13.35204 -19.23313,35.98018 -8.79551,54.0586 11.91947,20.64517 38.52156,27.78522 59.16668,15.86571 20.64518,-11.91949 27.75138,-38.5215 15.83191,-59.16667 -10.43718,-18.07772 -32.09065,-25.74849 -51.18311,-19.384 z m -171.71538,65.56035 c 4.97455,-0.33436 10.12707,0.75711 14.85089,3.48437 12.59688,7.27285 16.81258,22.92345 9.53972,35.52033 -7.2728,12.59688 -22.9234,16.77874 -35.52028,9.50595 -12.59687,-7.27285 -16.77877,-22.92351 -9.50591,-35.52033 4.54549,-7.87303 12.34468,-12.43253 20.63558,-12.99032 z m 216.43713,0 c 8.29097,0.55785 16.09016,5.11729 20.63565,12.99032 7.2728,12.59688 3.09096,28.24748 -9.50591,35.52033 -12.59687,7.27279 -28.21367,3.05708 -35.48654,-9.53975 -7.2728,-12.59687 -3.09088,-28.21375 9.50591,-35.48653 4.7239,-2.72726 9.87634,-3.81903 14.85089,-3.48437 z"
     inkscape:connector-curvature="0" />
</svg>
