<svg id="Capa_1" enable-background="new 0 0 512 512" height="512" viewBox="0 0 512 512" width="512" xmlns="http://www.w3.org/2000/svg"><circle cx="301" cy="37.5" r="7.5"/><circle cx="211" cy="37.5" r="7.5"/><path d="m271 30h-30c-4.142 0-7.5 3.358-7.5 7.5s3.358 7.5 7.5 7.5h30c4.142 0 7.5-3.358 7.5-7.5s-3.358-7.5-7.5-7.5z"/><path d="m376 422c4.142 0 7.5-3.358 7.5-7.5v-317c0-4.142-3.358-7.5-7.5-7.5h-240c-4.142 0-7.5 3.358-7.5 7.5v317c0 4.142 3.358 7.5 7.5 7.5zm-232.5-317h225v302h-225z"/><path d="m376 0h-240c-20.678 0-37.5 16.822-37.5 37.5v203.5c0 4.142 3.358 7.5 7.5 7.5s7.5-3.358 7.5-7.5v-166h285v362h-285v-166c0-4.142-3.358-7.5-7.5-7.5s-7.5 3.358-7.5 7.5v203.5c0 20.678 16.822 37.5 37.5 37.5h240c20.678 0 37.5-16.822 37.5-37.5v-437c0-20.678-16.822-37.5-37.5-37.5zm-262.5 60v-22.5c0-12.407 10.093-22.5 22.5-22.5h240c12.407 0 22.5 10.093 22.5 22.5v22.5zm262.5 437h-240c-12.407 0-22.5-10.093-22.5-22.5v-22.5h285v22.5c0 12.407-10.093 22.5-22.5 22.5z"/></svg>