<svg id="Capa_1" enable-background="new 0 0 512 512" height="512" viewBox="0 0 512 512" width="512" xmlns="http://www.w3.org/2000/svg"><path d="m474.5 22.5h-437c-20.678 0-37.5 16.822-37.5 37.5v116c0 4.142 3.358 7.5 7.5 7.5s7.5-3.358 7.5-7.5v-116c0-12.407 10.093-22.5 22.5-22.5h437c12.407 0 22.5 10.093 22.5 22.5v284.5h-482v-138.5c0-4.142-3.358-7.5-7.5-7.5s-7.5 3.358-7.5 7.5v176c0 20.678 16.822 37.5 37.5 37.5h137.557l-9.027 31.594c-3.625 12.687-17.835 23.406-31.03 23.406h-49c-4.142 0-7.5 3.358-7.5 7.5s3.358 7.5 7.5 7.5h340c4.142 0 7.5-3.358 7.5-7.5s-3.358-7.5-7.5-7.5h-49c-13.195 0-27.405-10.719-31.03-23.406l-9.027-31.594h137.557c20.678 0 37.5-16.822 37.5-37.5v-322c0-20.678-16.822-37.5-37.5-37.5zm-142.953 432.715c2.058 7.204 6.149 13.824 11.512 19.285h-174.119c5.363-5.461 9.454-12.081 11.513-19.285l10.204-35.715h130.685zm142.953-50.715h-437c-12.407 0-22.5-10.093-22.5-22.5v-22.5h482v22.5c0 12.407-10.093 22.5-22.5 22.5z"/><path d="m474.5 329.5c4.142 0 7.5-3.358 7.5-7.5v-262c0-4.142-3.358-7.5-7.5-7.5h-437c-4.142 0-7.5 3.358-7.5 7.5v262c0 4.142 3.358 7.5 7.5 7.5zm-429.5-262h422v247h-422z"/></svg>